<?xml version="1.0" encoding="utf-8"?>
<svg id="master-artboard" viewBox="0 0 1400 980" version="1.1" xmlns="http://www.w3.org/2000/svg" x="0px" y="0px" style="enable-background:new 0 0 1400 980;" width="1400px" height="980px"><defs><linearGradient id="gradient-0" gradientUnits="userSpaceOnUse" x1="1138.5" y1="178.70001220703125" x2="1138.5" y2="322.5">
                <stop offset="0" style="stop-color: #008cab"/>
                <stop offset="1" style="stop-color: #003845"/>
              </linearGradient><radialGradient id="gradient-1" gradientUnits="objectBoundingBox" cx="0.5" cy="0.5" r="0.5">
                <stop offset="0" style="stop-color: #a1a1ab"/>
                <stop offset="1" style="stop-color: #6d6d79"/>
              </radialGradient><radialGradient id="gradient-2" gradientUnits="objectBoundingBox" cx="0.5" cy="0.5" r="0.5">
                <stop offset="0" style="stop-color: #a1a1ab"/>
                <stop offset="1" style="stop-color: #6d6d79"/>
              </radialGradient><radialGradient id="gradient-3" gradientUnits="objectBoundingBox" cx="0.5" cy="0.5" r="0.5">
                <stop offset="0" style="stop-color: #a1a1ab"/>
                <stop offset="1" style="stop-color: #6d6d79"/>
              </radialGradient><radialGradient id="gradient-4" gradientUnits="objectBoundingBox" cx="0.5" cy="0.5" r="0.5">
                <stop offset="0" style="stop-color: #a1a1ab"/>
                <stop offset="1" style="stop-color: #6d6d79"/>
              </radialGradient><radialGradient id="gradient-5" gradientUnits="objectBoundingBox" cx="0.5" cy="0.5" r="0.5">
                <stop offset="0" style="stop-color: #a1a1ab"/>
                <stop offset="1" style="stop-color: #6d6d79"/>
              </radialGradient><radialGradient id="gradient-6" gradientUnits="objectBoundingBox" cx="0.5" cy="0.5" r="0.5">
                <stop offset="0" style="stop-color: #a1a1ab"/>
                <stop offset="1" style="stop-color: #6d6d79"/>
              </radialGradient><radialGradient id="gradient-7" gradientUnits="objectBoundingBox" cx="0.5" cy="0.5" r="0.5">
                <stop offset="0" style="stop-color: #a1a1ab"/>
                <stop offset="1" style="stop-color: #6d6d79"/>
              </radialGradient><radialGradient id="gradient-8" gradientUnits="objectBoundingBox" cx="0.5" cy="0.5" r="0.5">
                <stop offset="0" style="stop-color: #a1a1ab"/>
                <stop offset="1" style="stop-color: #6d6d79"/>
              </radialGradient><radialGradient id="gradient-9" gradientUnits="objectBoundingBox" cx="0.5" cy="0.5" r="0.5">
                <stop offset="0" style="stop-color: #a1a1ab"/>
                <stop offset="1" style="stop-color: #6d6d79"/>
              </radialGradient><radialGradient id="gradient-10" gradientUnits="objectBoundingBox" cx="0.5" cy="0.5" r="0.5">
                <stop offset="0" style="stop-color: #a1a1ab"/>
                <stop offset="1" style="stop-color: #6d6d79"/>
              </radialGradient><radialGradient id="gradient-11" gradientUnits="objectBoundingBox" cx="0.5" cy="0.5" r="0.5">
                <stop offset="0" style="stop-color: #a1a1ab"/>
                <stop offset="1" style="stop-color: #6d6d79"/>
              </radialGradient><radialGradient id="gradient-12" gradientUnits="objectBoundingBox" cx="0.5" cy="0.5" r="0.5">
                <stop offset="0" style="stop-color: #a1a1ab"/>
                <stop offset="1" style="stop-color: #6d6d79"/>
              </radialGradient><radialGradient id="gradient-13" gradientUnits="objectBoundingBox" cx="0.5" cy="0.5" r="0.5">
                <stop offset="0" style="stop-color: #a1a1ab"/>
                <stop offset="1" style="stop-color: #6d6d79"/>
              </radialGradient><radialGradient id="gradient-14" gradientUnits="objectBoundingBox" cx="0.5" cy="0.5" r="0.5">
                <stop offset="0" style="stop-color: #a1a1ab"/>
                <stop offset="1" style="stop-color: #6d6d79"/>
              </radialGradient><radialGradient id="gradient-15" gradientUnits="objectBoundingBox" cx="0.5" cy="0.5" r="0.5">
                <stop offset="0" style="stop-color: #a1a1ab"/>
                <stop offset="1" style="stop-color: #6d6d79"/>
              </radialGradient><radialGradient id="gradient-16" gradientUnits="objectBoundingBox" cx="0.5" cy="0.5" r="0.5">
                <stop offset="0" style="stop-color: #a1a1ab"/>
                <stop offset="1" style="stop-color: #6d6d79"/>
              </radialGradient><radialGradient id="gradient-17" gradientUnits="objectBoundingBox" cx="0.5" cy="0.5" r="0.5">
                <stop offset="0" style="stop-color: #a1a1ab"/>
                <stop offset="1" style="stop-color: #6d6d79"/>
              </radialGradient><radialGradient id="gradient-18" gradientUnits="objectBoundingBox" cx="0.5" cy="0.5" r="0.5">
                <stop offset="0" style="stop-color: #a1a1ab"/>
                <stop offset="1" style="stop-color: #6d6d79"/>
              </radialGradient><radialGradient id="gradient-19" gradientUnits="objectBoundingBox" cx="0.5" cy="0.5" r="0.5">
                <stop offset="0" style="stop-color: #a1a1ab"/>
                <stop offset="1" style="stop-color: #6d6d79"/>
              </radialGradient><radialGradient id="gradient-20" gradientUnits="objectBoundingBox" cx="0.5" cy="0.5" r="0.5">
                <stop offset="0" style="stop-color: #a1a1ab"/>
                <stop offset="1" style="stop-color: #6d6d79"/>
              </radialGradient><radialGradient id="gradient-21" gradientUnits="objectBoundingBox" cx="0.5" cy="0.5" r="0.5">
                <stop offset="0" style="stop-color: #a1a1ab"/>
                <stop offset="1" style="stop-color: #6d6d79"/>
              </radialGradient><radialGradient id="gradient-22" gradientUnits="objectBoundingBox" cx="0.5" cy="0.5" r="0.5">
                <stop offset="0" style="stop-color: #a1a1ab"/>
                <stop offset="1" style="stop-color: #6d6d79"/>
              </radialGradient><radialGradient id="gradient-23" gradientUnits="objectBoundingBox" cx="0.5" cy="0.5" r="0.5">
                <stop offset="0" style="stop-color: #a6ad28"/>
                <stop offset="1" style="stop-color: #575a15"/>
              </radialGradient><radialGradient id="gradient-24" gradientUnits="objectBoundingBox" cx="0.5" cy="0.5" r="0.5">
                <stop offset="0" style="stop-color: #a6ad28"/>
                <stop offset="1" style="stop-color: #575a15"/>
              </radialGradient><radialGradient id="gradient-25" gradientUnits="objectBoundingBox" cx="0.5" cy="0.5" r="0.5">
                <stop offset="0" style="stop-color: #a6ad28"/>
                <stop offset="1" style="stop-color: #575a15"/>
              </radialGradient><radialGradient id="gradient-26" gradientUnits="objectBoundingBox" cx="0.5" cy="0.5" r="0.5">
                <stop offset="0" style="stop-color: #a6ad28"/>
                <stop offset="1" style="stop-color: #575a15"/>
              </radialGradient><radialGradient id="gradient-27" gradientUnits="objectBoundingBox" cx="0.5" cy="0.5" r="0.5">
                <stop offset="0" style="stop-color: #a6ad28"/>
                <stop offset="1" style="stop-color: #575a15"/>
              </radialGradient><radialGradient id="gradient-28" gradientUnits="objectBoundingBox" cx="0.5" cy="0.5" r="0.5">
                <stop offset="0" style="stop-color: #a6ad28"/>
                <stop offset="1" style="stop-color: #575a15"/>
              </radialGradient><radialGradient id="gradient-29" gradientUnits="objectBoundingBox" cx="0.5" cy="0.5" r="0.5">
                <stop offset="0" style="stop-color: #a6ad28"/>
                <stop offset="1" style="stop-color: #575a15"/>
              </radialGradient><radialGradient id="gradient-30" gradientUnits="objectBoundingBox" cx="0.5" cy="0.5" r="0.5">
                <stop offset="0" style="stop-color: #a6ad28"/>
                <stop offset="1" style="stop-color: #575a15"/>
              </radialGradient><radialGradient id="gradient-31" gradientUnits="objectBoundingBox" cx="0.5" cy="0.5" r="0.5">
                <stop offset="0" style="stop-color: #a6ad28"/>
                <stop offset="1" style="stop-color: #575a15"/>
              </radialGradient><radialGradient id="gradient-32" gradientUnits="objectBoundingBox" cx="0.5" cy="0.5" r="0.5">
                <stop offset="0" style="stop-color: #a6ad28"/>
                <stop offset="1" style="stop-color: #575a15"/>
              </radialGradient><radialGradient id="gradient-33" gradientUnits="objectBoundingBox" cx="0.5" cy="0.5" r="0.5">
                <stop offset="0" style="stop-color: #a6ad28"/>
                <stop offset="1" style="stop-color: #575a15"/>
              </radialGradient><radialGradient id="gradient-34" gradientUnits="objectBoundingBox" cx="0.5" cy="0.5" r="0.5">
                <stop offset="0" style="stop-color: #a6ad28"/>
                <stop offset="1" style="stop-color: #575a15"/>
              </radialGradient><radialGradient id="gradient-35" gradientUnits="objectBoundingBox" cx="0.5" cy="0.5" r="0.5">
                <stop offset="0" style="stop-color: #a6ad28"/>
                <stop offset="1" style="stop-color: #575a15"/>
              </radialGradient><radialGradient id="gradient-36" gradientUnits="objectBoundingBox" cx="0.5" cy="0.5" r="0.5">
                <stop offset="0" style="stop-color: #a6ad28"/>
                <stop offset="1" style="stop-color: #575a15"/>
              </radialGradient><radialGradient id="gradient-37" gradientUnits="objectBoundingBox" cx="0.5" cy="0.5" r="0.5">
                <stop offset="0" style="stop-color: #a6ad28"/>
                <stop offset="1" style="stop-color: #575a15"/>
              </radialGradient><radialGradient id="gradient-38" gradientUnits="objectBoundingBox" cx="0.5" cy="0.5" r="0.5">
                <stop offset="0" style="stop-color: #a6ad28"/>
                <stop offset="1" style="stop-color: #575a15"/>
              </radialGradient><radialGradient id="gradient-39" gradientUnits="objectBoundingBox" cx="0.5" cy="0.5" r="0.5">
                <stop offset="0" style="stop-color: #a6ad28"/>
                <stop offset="1" style="stop-color: #575a15"/>
              </radialGradient><radialGradient id="gradient-40" gradientUnits="objectBoundingBox" cx="0.5" cy="0.5" r="0.5">
                <stop offset="0" style="stop-color: #a6ad28"/>
                <stop offset="1" style="stop-color: #575a15"/>
              </radialGradient><radialGradient id="gradient-41" gradientUnits="objectBoundingBox" cx="0.5" cy="0.5" r="0.5">
                <stop offset="0" style="stop-color: #a6ad28"/>
                <stop offset="1" style="stop-color: #575a15"/>
              </radialGradient><radialGradient id="gradient-42" gradientUnits="objectBoundingBox" cx="0.5" cy="0.5" r="0.5">
                <stop offset="0" style="stop-color: #a6ad28"/>
                <stop offset="1" style="stop-color: #575a15"/>
              </radialGradient><radialGradient id="gradient-43" gradientUnits="objectBoundingBox" cx="0.5" cy="0.5" r="0.5">
                <stop offset="0" style="stop-color: #a6ad28"/>
                <stop offset="1" style="stop-color: #575a15"/>
              </radialGradient><radialGradient id="gradient-44" gradientUnits="objectBoundingBox" cx="0.5" cy="0.5" r="0.5">
                <stop offset="0" style="stop-color: #a6ad28"/>
                <stop offset="1" style="stop-color: #575a15"/>
              </radialGradient><linearGradient id="gradient-45" gradientUnits="userSpaceOnUse" x1="1008.2854614257812" y1="185.90000915527344" x2="1008.2854614257812" y2="315.20001220703125">
                <stop offset="0" style="stop-color: #ff3d36"/>
                <stop offset="1" style="stop-color: #cf0700"/>
              </linearGradient><linearGradient id="gradient-46" gradientUnits="userSpaceOnUse" x1="1110.8319091796875" y1="185.90000915527344" x2="1110.8319091796875" y2="315.20001220703125">
                <stop offset="0" style="stop-color: #ff3d36"/>
                <stop offset="1" style="stop-color: #cf0700"/>
              </linearGradient><linearGradient id="gradient-47" gradientUnits="userSpaceOnUse" x1="1085.0999755859375" y1="290.6000061035156" x2="1085.0999755859375" y2="302">
                <stop offset="0" style="stop-color: #ff3d36"/>
                <stop offset="1" style="stop-color: #cf0700"/>
              </linearGradient><linearGradient id="gradient-48" gradientUnits="userSpaceOnUse" x1="1246.449951171875" y1="231.1999969482422" x2="1246.449951171875" y2="269.79998779296875">
                <stop offset="0" style="stop-color: #ff3d36"/>
                <stop offset="1" style="stop-color: #cf0700"/>
              </linearGradient><linearGradient id="gradient-49" gradientUnits="userSpaceOnUse" x1="1033" y1="318.79998779296875" x2="1033" y2="318.8999938964844">
                <stop offset="0" style="stop-color: #ff3d36"/>
                <stop offset="1" style="stop-color: #cf0700"/>
              </linearGradient><linearGradient id="gradient-50" gradientUnits="userSpaceOnUse" x1="1246.3499755859375" y1="280.8999938964844" x2="1246.3499755859375" y2="313.79998779296875">
                <stop offset="0" style="stop-color: #ff3d36"/>
                <stop offset="1" style="stop-color: #cf0700"/>
              </linearGradient><linearGradient id="gradient-51" gradientUnits="userSpaceOnUse" x1="1246.3499755859375" y1="187.1999969482422" x2="1246.3499755859375" y2="220.09999084472656">
                <stop offset="0" style="stop-color: #ff3d36"/>
                <stop offset="1" style="stop-color: #cf0700"/>
              </linearGradient><linearGradient id="gradient-52" gradientUnits="userSpaceOnUse" x1="1210.5499267578125" y1="209.50001525878906" x2="1210.5499267578125" y2="291.5">
                <stop offset="0" style="stop-color: #ff3d36"/>
                <stop offset="1" style="stop-color: #cf0700"/>
              </linearGradient><linearGradient id="gradient-53" gradientUnits="userSpaceOnUse" x1="1138.5" y1="178.70001220703125" x2="1138.5" y2="322.5">
                <stop offset="0" style="stop-color: #ff3d36"/>
                <stop offset="1" style="stop-color: #cf0700"/>
              </linearGradient><linearGradient id="gradient-54" gradientUnits="userSpaceOnUse" x1="1085.0999755859375" y1="283.4999694824219" x2="1085.0999755859375" y2="309.29998779296875">
                <stop offset="0" style="stop-color: #ff3d36"/>
                <stop offset="1" style="stop-color: #cf0700"/>
              </linearGradient><linearGradient id="gradient-55" gradientUnits="userSpaceOnUse" x1="1110.1500244140625" y1="272.3999938964844" x2="1110.1500244140625" y2="315.20001220703125">
                <stop offset="0" style="stop-color: #ff3d36"/>
                <stop offset="1" style="stop-color: #cf0700"/>
              </linearGradient><linearGradient id="gradient-56" gradientUnits="userSpaceOnUse" x1="1085.0999755859375" y1="290.6000061035156" x2="1085.0999755859375" y2="302">
                <stop offset="0" style="stop-color: #ff3d36"/>
                <stop offset="1" style="stop-color: #cf0700"/>
              </linearGradient><linearGradient id="gradient-57" gradientUnits="userSpaceOnUse" x1="1033" y1="318.79998779296875" x2="1033" y2="318.8999938964844">
                <stop offset="0" style="stop-color: #ff3d36"/>
                <stop offset="1" style="stop-color: #cf0700"/>
              </linearGradient><linearGradient id="gradient-58" gradientUnits="userSpaceOnUse" x1="1246.3499755859375" y1="280.8999938964844" x2="1246.3499755859375" y2="313.79998779296875">
                <stop offset="0" style="stop-color: #ff3d36"/>
                <stop offset="1" style="stop-color: #cf0700"/>
              </linearGradient><linearGradient id="gradient-59" gradientUnits="userSpaceOnUse" x1="1210.5499267578125" y1="257.20001220703125" x2="1210.5499267578125" y2="291.6000061035156">
                <stop offset="0" style="stop-color: #ff3d36"/>
                <stop offset="1" style="stop-color: #cf0700"/>
              </linearGradient><linearGradient id="gradient-60" gradientUnits="userSpaceOnUse" x1="1006.8500061035156" y1="250.60000610351562" x2="1006.8500061035156" y2="315.20001220703125">
                <stop offset="0" style="stop-color: #ff3d36"/>
                <stop offset="1" style="stop-color: #cf0700"/>
              </linearGradient><linearGradient id="gradient-61" gradientUnits="userSpaceOnUse" x1="1246.449951171875" y1="261.8999938964844" x2="1246.449951171875" y2="269.79998779296875">
                <stop offset="0" style="stop-color: #ff3d36"/>
                <stop offset="1" style="stop-color: #cf0700"/>
              </linearGradient><linearGradient id="gradient-62" gradientUnits="userSpaceOnUse" x1="1110.0999755859375" y1="185.89999389648438" x2="1110.0999755859375" y2="228.6999969482422">
                <stop offset="0" style="stop-color: #ff3d36"/>
                <stop offset="1" style="stop-color: #cf0700"/>
              </linearGradient><linearGradient id="gradient-63" gradientUnits="userSpaceOnUse" x1="1252.75" y1="187.1999969482422" x2="1252.75" y2="211.8000030517578">
                <stop offset="0" style="stop-color: #ff3d36"/>
                <stop offset="1" style="stop-color: #cf0700"/>
              </linearGradient><linearGradient id="gradient-64" gradientUnits="userSpaceOnUse" x1="1210.699951171875" y1="209.5" x2="1210.699951171875" y2="243.6999969482422">
                <stop offset="0" style="stop-color: #ff3d36"/>
                <stop offset="1" style="stop-color: #cf0700"/>
              </linearGradient><linearGradient id="gradient-65" gradientUnits="userSpaceOnUse" x1="1006.0999755859375" y1="185.90000915527344" x2="1006.0999755859375" y2="250.40023803710938">
                <stop offset="0" style="stop-color: #ff3d36"/>
                <stop offset="1" style="stop-color: #cf0700"/>
              </linearGradient><linearGradient id="gradient-66" gradientUnits="userSpaceOnUse" x1="1246.449951171875" y1="231.1999969482422" x2="1246.449951171875" y2="239.1999969482422">
                <stop offset="0" style="stop-color: #ff3d36"/>
                <stop offset="1" style="stop-color: #cf0700"/>
              </linearGradient><linearGradient id="gradient-67" gradientUnits="userSpaceOnUse" x1="1008.2854614257812" y1="185.90000915527344" x2="1008.2854614257812" y2="315.20001220703125">
                <stop offset="0" style="stop-color: #ff4229"/>
                <stop offset="1" style="stop-color: #c21700"/>
              </linearGradient><linearGradient id="gradient-68" gradientUnits="userSpaceOnUse" x1="1110.8319091796875" y1="185.90000915527344" x2="1110.8319091796875" y2="315.20001220703125">
                <stop offset="0" style="stop-color: #ff4229"/>
                <stop offset="1" style="stop-color: #c21700"/>
              </linearGradient><linearGradient id="gradient-69" gradientUnits="userSpaceOnUse" x1="1085.0999755859375" y1="290.6000061035156" x2="1085.0999755859375" y2="302">
                <stop offset="0" style="stop-color: #ff4229"/>
                <stop offset="1" style="stop-color: #c21700"/>
              </linearGradient><linearGradient id="gradient-70" gradientUnits="userSpaceOnUse" x1="1246.449951171875" y1="231.1999969482422" x2="1246.449951171875" y2="269.79998779296875">
                <stop offset="0" style="stop-color: #ff4229"/>
                <stop offset="1" style="stop-color: #c21700"/>
              </linearGradient><linearGradient id="gradient-71" gradientUnits="userSpaceOnUse" x1="1033" y1="318.79998779296875" x2="1033" y2="318.8999938964844">
                <stop offset="0" style="stop-color: #ff4229"/>
                <stop offset="1" style="stop-color: #c21700"/>
              </linearGradient><linearGradient id="gradient-72" gradientUnits="userSpaceOnUse" x1="1246.3499755859375" y1="280.8999938964844" x2="1246.3499755859375" y2="313.79998779296875">
                <stop offset="0" style="stop-color: #ff4229"/>
                <stop offset="1" style="stop-color: #c21700"/>
              </linearGradient><linearGradient id="gradient-73" gradientUnits="userSpaceOnUse" x1="1246.3499755859375" y1="187.1999969482422" x2="1246.3499755859375" y2="220.09999084472656">
                <stop offset="0" style="stop-color: #ff4229"/>
                <stop offset="1" style="stop-color: #c21700"/>
              </linearGradient><linearGradient id="gradient-74" gradientUnits="userSpaceOnUse" x1="1210.5499267578125" y1="209.50001525878906" x2="1210.5499267578125" y2="291.5">
                <stop offset="0" style="stop-color: #ff4229"/>
                <stop offset="1" style="stop-color: #c21700"/>
              </linearGradient><linearGradient id="gradient-75" gradientUnits="userSpaceOnUse" x1="1138.5" y1="178.70001220703125" x2="1138.5" y2="322.5">
                <stop offset="0" style="stop-color: #ff4229"/>
                <stop offset="1" style="stop-color: #c21700"/>
              </linearGradient><linearGradient id="gradient-76" gradientUnits="userSpaceOnUse" x1="1085.0999755859375" y1="283.4999694824219" x2="1085.0999755859375" y2="309.29998779296875">
                <stop offset="0" style="stop-color: #ff4229"/>
                <stop offset="1" style="stop-color: #c21700"/>
              </linearGradient><linearGradient id="gradient-77" gradientUnits="userSpaceOnUse" x1="1110.1500244140625" y1="272.3999938964844" x2="1110.1500244140625" y2="315.20001220703125">
                <stop offset="0" style="stop-color: #ff4229"/>
                <stop offset="1" style="stop-color: #c21700"/>
              </linearGradient><linearGradient id="gradient-78" gradientUnits="userSpaceOnUse" x1="1085.0999755859375" y1="290.6000061035156" x2="1085.0999755859375" y2="302">
                <stop offset="0" style="stop-color: #ff4229"/>
                <stop offset="1" style="stop-color: #c21700"/>
              </linearGradient><linearGradient id="gradient-79" gradientUnits="userSpaceOnUse" x1="1033" y1="318.79998779296875" x2="1033" y2="318.8999938964844">
                <stop offset="0" style="stop-color: #ff4229"/>
                <stop offset="1" style="stop-color: #c21700"/>
              </linearGradient><linearGradient id="gradient-80" gradientUnits="userSpaceOnUse" x1="1246.3499755859375" y1="280.8999938964844" x2="1246.3499755859375" y2="313.79998779296875">
                <stop offset="0" style="stop-color: #ff4229"/>
                <stop offset="1" style="stop-color: #c21700"/>
              </linearGradient><linearGradient id="gradient-81" gradientUnits="userSpaceOnUse" x1="1210.5499267578125" y1="257.20001220703125" x2="1210.5499267578125" y2="291.6000061035156">
                <stop offset="0" style="stop-color: #ff4229"/>
                <stop offset="1" style="stop-color: #c21700"/>
              </linearGradient><linearGradient id="gradient-82" gradientUnits="userSpaceOnUse" x1="1006.8500061035156" y1="250.60000610351562" x2="1006.8500061035156" y2="315.20001220703125">
                <stop offset="0" style="stop-color: #ff4229"/>
                <stop offset="1" style="stop-color: #c21700"/>
              </linearGradient><linearGradient id="gradient-83" gradientUnits="userSpaceOnUse" x1="1246.449951171875" y1="261.8999938964844" x2="1246.449951171875" y2="269.79998779296875">
                <stop offset="0" style="stop-color: #ff4229"/>
                <stop offset="1" style="stop-color: #c21700"/>
              </linearGradient><linearGradient id="gradient-84" gradientUnits="userSpaceOnUse" x1="1110.0999755859375" y1="185.89999389648438" x2="1110.0999755859375" y2="228.6999969482422">
                <stop offset="0" style="stop-color: #ff4229"/>
                <stop offset="1" style="stop-color: #c21700"/>
              </linearGradient><linearGradient id="gradient-85" gradientUnits="userSpaceOnUse" x1="1252.75" y1="187.1999969482422" x2="1252.75" y2="211.8000030517578">
                <stop offset="0" style="stop-color: #ff4229"/>
                <stop offset="1" style="stop-color: #c21700"/>
              </linearGradient><linearGradient id="gradient-86" gradientUnits="userSpaceOnUse" x1="1210.699951171875" y1="209.5" x2="1210.699951171875" y2="243.6999969482422">
                <stop offset="0" style="stop-color: #ff4229"/>
                <stop offset="1" style="stop-color: #c21700"/>
              </linearGradient><linearGradient id="gradient-87" gradientUnits="userSpaceOnUse" x1="1006.0999755859375" y1="185.90000915527344" x2="1006.0999755859375" y2="250.40023803710938">
                <stop offset="0" style="stop-color: #ff4229"/>
                <stop offset="1" style="stop-color: #c21700"/>
              </linearGradient><linearGradient id="gradient-88" gradientUnits="userSpaceOnUse" x1="1246.449951171875" y1="231.1999969482422" x2="1246.449951171875" y2="239.1999969482422">
                <stop offset="0" style="stop-color: #ff4229"/>
                <stop offset="1" style="stop-color: #c21700"/>
              </linearGradient></defs>

<path class="st1" d="M1030.9,315.2c22.4-52.7,4-116.1-0.2-129.3c-6.5,0.6-24.6,3.7-39.5,20.5c-21.9,24.7-21.9,63.5,0,88.2&#10;&#9;&#9;&#9;C1006.3,311.7,1024.7,314.6,1030.9,315.2z" style="fill: url('#gradient-67'); stroke: rgb(255, 222, 222); fill-opacity: 1;" transform="matrix(0.0054661110043525704, 0.9999850392341615, -0.9999850392341615, 0.0054661110043525704, 863.1928710937498, -836.2658691406251)"/><path class="st0" d="M1038.5,315.2c57.3-0.6,104.9-10.7,139.2-21.1c11.7-41.6,2.7-78.5,0.2-87c-34.4-10.5-82.2-20.7-139.8-21.2&#10;&#9;&#9;&#9;c2.3,7.3,6.4,22.3,8.9,41.2C1049.9,250.4,1050.8,284.2,1038.5,315.2z M1061,291.2c0-4.3,3.4-7.7,7.5-7.7h33.2&#10;&#9;&#9;&#9;c4.1,0,7.5,3.5,7.5,7.7v10.4c0,4.3-3.4,7.7-7.5,7.7h-33.2c-4.1,0-7.5-3.5-7.5-7.7V291.2z" style="fill: url('#gradient-68'); stroke: rgb(255, 222, 222); fill-opacity: 1;" transform="matrix(0.0054661110043525704, 0.9999850392341615, -0.9999850392341615, 0.0054661110043525704, 863.1928710937498, -836.2658691406251)"/><path class="st0" d="M1068.5,302h33.2c0.3,0,0.5-0.2,0.5-0.5v-10.4c0-0.3-0.2-0.5-0.5-0.5h-33.2c-0.3,0-0.5,0.2-0.5,0.5v10.4&#10;&#9;&#9;&#9;C1068,301.8,1068.2,302,1068.5,302z" style="fill: url('#gradient-69'); stroke: rgb(255, 222, 222); fill-opacity: 1;" transform="matrix(0.0054661110043525704, 0.9999850392341615, -0.9999850392341615, 0.0054661110043525704, 863.1928710937498, -836.2658691406251)"/><path d="M 1242.599976 231.199997 H 1250.299975 V 269.799995 H 1242.599976 V 231.199997 Z" class="st1" style="fill: url('#gradient-70'); stroke: rgb(255, 222, 222); fill-opacity: 1;" transform="matrix(0.0054661110043525704, 0.9999850392341615, -0.9999850392341615, 0.0054661110043525704, 863.1928710937498, -836.2658691406251)"/><path d="M 1033 318.8999938964844 L 1033 318.79998779296875 L 1033 318.79998779296875 Z" class="st0" style="fill: url('#gradient-71'); stroke: rgb(255, 222, 222); fill-opacity: 1;" transform="matrix(0.0054661110043525704, 0.9999850392341615, -0.9999850392341615, 0.0054661110043525704, 863.1928710937498, -836.2658691406251)"/><path class="st0" d="M1206.2,295.8l33,18h47.3l-46.8-32.9C1227.5,287.9,1214.4,293,1206.2,295.8z" style="fill: url('#gradient-72'); stroke: rgb(255, 222, 222); fill-opacity: 1;" transform="matrix(0.0054661110043525704, 0.9999850392341615, -0.9999850392341615, 0.0054661110043525704, 863.1928710937498, -836.2658691406251)"/><path class="st0" d="M1286.5,187.2h-47.3l-33,18c8.2,2.8,21.3,7.9,33.5,14.9L1286.5,187.2z" style="fill: url('#gradient-73'); stroke: rgb(255, 222, 222); fill-opacity: 1;" transform="matrix(0.0054661110043525704, 0.9999850392341615, -0.9999850392341615, 0.0054661110043525704, 863.1928710937498, -836.2658691406251)"/><path class="st0" d="M1235.6,271.2v-41.4c-5.4-2.8-22.7-11.4-49.8-20.3c3.3,13.4,8.9,45.4-0.3,82&#10;&#9;&#9;&#9;C1212.8,282.7,1230.2,274.1,1235.6,271.2z" style="fill: url('#gradient-74'); stroke: rgb(255, 222, 222); fill-opacity: 1;" transform="matrix(0.0054661110043525704, 0.9999850392341615, -0.9999850392341615, 0.0054661110043525704, 863.1928710937498, -836.2658691406251)"/><path d="M1033,322.5L1033,322.5c65.6,0,118.5-12.4,151.4-22.9c3-0.9,5.8-1.9,8.6-2.8l44.5,24.3h71.7l-62.5-44h10.6v-53h-10.6&#10;&#9;&#9;&#9;l62.5-44h-71.7l-44.5,24.3c-2.8-0.9-5.6-1.9-8.6-2.8c-32.8-10.4-85.8-22.9-151.2-22.9l-0.1,0c-2.7,0-27.2,0.6-47,23&#10;&#9;&#9;&#9;c-24.4,27.5-24.4,70.5,0,97.9C1005.8,321.8,1030.3,322.5,1033,322.5z M1286.5,313.8h-47.3l-33-18c8.2-2.8,21.3-7.9,33.5-14.9&#10;&#9;&#9;&#9;L1286.5,313.8z M1250.3,231.2v38.6h-7.7v-38.6H1250.3z M1239.2,187.2h47.3l-46.8,32.9c-12.2-7.1-25.3-12.1-33.5-14.9L1239.2,187.2&#10;&#9;&#9;&#9;z M1185.8,209.6c27.1,8.8,44.4,17.4,49.8,20.3v41.4c-5.4,2.8-22.8,11.5-50.1,20.4C1194.7,255,1189.1,223,1185.8,209.6z&#10;&#9;&#9;&#9; M1033,318.9L1033,318.9L1033,318.9L1033,318.9z M1177.9,207c2.4,8.5,11.4,45.5-0.2,87c-34.3,10.5-81.8,20.5-139.2,21.1&#10;&#9;&#9;&#9;c12.3-31.1,11.5-64.8,8.4-88.2c-2.5-19-6.6-33.9-8.9-41.2C1095.6,186.3,1143.5,196.5,1177.9,207z M991.1,206.4&#10;&#9;&#9;&#9;c14.9-16.8,33-20,39.5-20.5c4.3,13.2,22.6,76.5,0.2,129.3c-6.2-0.5-24.6-3.5-39.7-20.6C969.2,269.9,969.2,231.2,991.1,206.4z" transform="matrix(0.0054661110043525704, 0.9999850392341615, -0.9999850392341615, 0.0054661110043525704, 863.1928710937498, -836.2658691406251)" style="fill: url('#gradient-75'); stroke: rgb(255, 222, 222); fill-opacity: 1;"/><path d="M1068.5,309.3h33.2c4.1,0,7.5-3.5,7.5-7.7v-10.4c0-4.3-3.4-7.7-7.5-7.7h-33.2c-4.1,0-7.5,3.5-7.5,7.7v10.4&#10;&#9;&#9;&#9;C1061,305.8,1064.3,309.3,1068.5,309.3z M1068,291.2c0-0.3,0.2-0.5,0.5-0.5h33.2c0.3,0,0.5,0.2,0.5,0.5v10.4&#10;&#9;&#9;&#9;c0,0.3-0.2,0.5-0.5,0.5h-33.2c-0.3,0-0.5-0.2-0.5-0.5V291.2z" transform="matrix(0.0054661110043525704, 0.9999850392341615, -0.9999850392341615, 0.0054661110043525704, 863.1928710937498, -836.2658691406251)" style="fill: url('#gradient-76'); stroke: rgb(255, 222, 222); fill-opacity: 1;"/><path class="st2" d="M1177.6,294.1c2.1-7.4,3.5-14.7,4.4-21.7c-10.4,2.1-42.4,8.2-76.4,12.2c2.1,1.4,3.5,3.8,3.5,6.5v10.4&#10;&#9;&#9;&#9;c0,4.3-3.4,7.7-7.5,7.7h-33.2c-4.1,0-7.5-3.5-7.5-7.7v-10.4c0-1,0.2-2,0.5-2.9c-5.4,0.2-10.6,0.2-15.5,0.1c-1.6,9-4.1,18-7.6,26.9&#10;&#9;&#9;&#9;C1095.8,314.6,1143.4,304.5,1177.6,294.1z" style="fill: url('#gradient-77'); stroke: rgb(255, 222, 222); fill-opacity: 1;" transform="matrix(0.0054661110043525704, 0.9999850392341615, -0.9999850392341615, 0.0054661110043525704, 863.1928710937498, -836.2658691406251)"/><path class="st2" d="M1068.5,302h33.2c0.3,0,0.5-0.2,0.5-0.5v-10.4c0-0.3-0.2-0.5-0.5-0.5h-33.2c-0.3,0-0.5,0.2-0.5,0.5v10.4&#10;&#9;&#9;&#9;C1068,301.8,1068.2,302,1068.5,302z" style="fill: url('#gradient-78'); stroke: rgb(255, 222, 222); fill-opacity: 1;" transform="matrix(0.0054661110043525704, 0.9999850392341615, -0.9999850392341615, 0.0054661110043525704, 863.1928710937498, -836.2658691406251)"/><path d="M 1033 318.79998779296875 L 1033 318.79998779296875 L 1033 318.8999938964844 Z" class="st2" style="fill: url('#gradient-79'); stroke: rgb(255, 222, 222); fill-opacity: 1;" transform="matrix(0.0054661110043525704, 0.9999850392341615, -0.9999850392341615, 0.0054661110043525704, 863.1928710937498, -836.2658691406251)"/><path class="st2" d="M1239.7,280.9c-12.2,7.1-25.3,12.1-33.5,14.9l33,18h47.3L1239.7,280.9z" style="fill: url('#gradient-80'); stroke: rgb(255, 222, 222); fill-opacity: 1;" transform="matrix(0.0054661110043525704, 0.9999850392341615, -0.9999850392341615, 0.0054661110043525704, 863.1928710937498, -836.2658691406251)"/><path class="st2" d="M1235.6,271.2v-14l-46.3,13.4c-0.8,6.7-2,13.8-3.8,21C1212.8,282.7,1230.2,274.1,1235.6,271.2z" style="fill: url('#gradient-81'); stroke: rgb(255, 222, 222); fill-opacity: 1;" transform="matrix(0.0054661110043525704, 0.9999850392341615, -0.9999850392341615, 0.0054661110043525704, 863.1928710937498, -836.2658691406251)"/><path class="st3" d="M1030.9,315.2c3.7-8.8,6.3-18,8.1-27.1c-50.2-3.5-64.1-37.5-64.1-37.5l-0.2,0c0,15.8,5.5,31.7,16.4,44&#10;&#9;&#9;&#9;C1006.3,311.7,1024.7,314.6,1030.9,315.2z" style="fill: url('#gradient-82'); fill-opacity: 1; stroke: rgb(255, 222, 222);" transform="matrix(0.0054661110043525704, 0.9999850392341615, -0.9999850392341615, 0.0054661110043525704, 863.1928710937498, -836.2658691406251)"/><path d="M 1242.599976 261.899994 H 1250.299975 V 269.799994 H 1242.599976 V 261.899994 Z" class="st3" style="fill: url('#gradient-83'); stroke: rgb(255, 222, 222); fill-opacity: 1;" transform="matrix(0.0054661110043525704, 0.9999850392341615, -0.9999850392341615, 0.0054661110043525704, 863.1928710937498, -836.2658691406251)"/><path class="st4" d="M1182.1,228.7c-1.3-10.6-3.3-18.3-4.2-21.6c-34.4-10.5-82.2-20.7-139.8-21.2c1.7,5.4,4.3,14.8,6.6,26.9&#10;&#9;&#9;&#9;C1091.3,211.3,1165.4,225.3,1182.1,228.7z" style="fill: url('#gradient-84'); stroke: rgb(255, 222, 222); fill-opacity: 1;" transform="matrix(0.0054661110043525704, 0.9999850392341615, -0.9999850392341615, 0.0054661110043525704, 863.1928710937498, -836.2658691406251)"/><path class="st4" d="M1235.7,205.7c5.2,2.3,10.4,4.3,15.8,6.1l35-24.6h-47.3l-20.2,11C1224.5,201,1230.2,203.2,1235.7,205.7z" style="fill: url('#gradient-85'); fill-opacity: 1; stroke: rgb(255, 222, 222);" transform="matrix(0.0054661110043525704, 0.9999850392341615, -0.9999850392341615, 0.0054661110043525704, 863.1928710937498, -836.2658691406251)"/><path class="st4" d="M1235.6,229.8c-5.4-2.8-22.7-11.4-49.8-20.3c1.2,4.8,2.7,12,3.6,20.9l46.2,13.3V229.8z" style="fill: url('#gradient-86'); stroke: rgb(255, 222, 222); fill-opacity: 1;" transform="matrix(0.0054661110043525704, 0.9999850392341615, -0.9999850392341615, 0.0054661110043525704, 863.1928710937498, -836.2658691406251)"/><path class="st5" d="M1037.5,213.1c-2.5-13.1-5.4-22.9-6.8-27.2c-6.5,0.6-24.6,3.7-39.5,20.5c-11,12.3-16.4,28.2-16.5,44l0.2,0&#10;&#9;&#9;&#9;C974.9,250.5,988.5,217.2,1037.5,213.1z" style="fill: url('#gradient-87'); stroke: rgb(255, 222, 222); fill-opacity: 1;" transform="matrix(0.0054661110043525704, 0.9999850392341615, -0.9999850392341615, 0.0054661110043525704, 863.1928710937498, -836.2658691406251)"/><path d="M 1242.599976 231.199997 H 1250.299975 V 239.199997 H 1242.599976 V 231.199997 Z" class="st5" style="fill: url('#gradient-88'); stroke: rgb(255, 222, 222); fill-opacity: 1;" transform="matrix(0.0054661110043525704, 0.9999850392341615, -0.9999850392341615, 0.0054661110043525704, 863.1928710937498, -836.2658691406251)"/>
</svg>